{"title":"Iron Man 2-AC3-XviD-DVDRip[Eng]2010 2Lions-Team","uid":5809928,"size":1559971421,"categoryP":"video","categoryS":"movies","magnet":"?xt=urn:btih:3fe65368ab47960afd8eb5533cc95579a254fd39&amp;dn=Iron+Man+2-AC3-XviD-DVDRip%5BEng%5D2010+2Lions-Team&amp;tr=udp%3A%2F%2Ftracker.openbittorrent.com%3A80&amp;tr=udp%3A%2F%2Fopen.demonii.com%3A1337&amp;tr=udp%3A%2F%2Ftracker.coppersurfer.tk%3A6969&amp;tr=udp%3A%2F%2Fexodus.desync.com%3A6969","seeders":0,"leechers":0,"uploader":"FatFreddy31","files":-1,"time":1283592948,"description":"Billionaire Tony Stark must contend with deadly issues involving the government, his own friends, as well as new enemies due to his superhero alter ego Iron Man.\n &lt;a href=&quot;\nhttp://www.imdb.com/title/tt1228705/&quot; rel=&quot;nofollow&quot; target=&quot;_NEW&quot;&gt;\nhttp://www.imdb.com/title/tt1228705/&lt;/a&gt;\n\nAudio: English\n\nSubtitles (srt) : Dutch.\n\nCovers included.\n\nMultimiljardair en geniale uitvinder Tony Stark (Robert Downey Jr.), wordt zes maanden, nadat hij zijn identiteit als 'Iron Man' heeft onthuld, opnieuw gedwongen zijn krachten te bundelen. Nu de wereld bewust is van het feit dat Tony 'Iron Man' is, wordt hij door zowel de pers als de regering onder druk gezet om zijn uitvinding en technologie met het Amerikaanse leger te delen. Tony weigert informatie te onthullen, omdat hij bang is dat het in de verkeerde handen terecht zal komen. Met Pepper Potts (Gwyneth Paltrow) en James ''Rhodey'' Rhodes (Don Cheadle) aan zijn zijde, smeedt Tony nieuwe plannen en moet hij het opnemen tegen nieuwe, duistere en gevaarlijke machten. Het duurt dan ook niet lang voordat de uiterst gevaarlijke Rus Ivan Vanko a.k.a. 'Whiplash' (Mickey Rourke) van zich laat horen...\n &lt;a href=&quot;\nhttp://www.moviemeter.nl/film/57684&quot; rel=&quot;nofollow&quot; target=&quot;_NEW&quot;&gt;\nhttp://www.moviemeter.nl/film/57684&lt;/a&gt;\n\nGeluid:Engels\n\nOndertitels (srt) : Nederlands.\n\nHoesjes bijgevoegd.\n\nGeneral\nComplete name                    : Iron Man 2-AC3-XviD-DVDRip[Eng]2010 2Lions-Team\\Iron Man 2-AC3-XviD-DVDRip[Eng]2010 2Lions-Team.avi\nFormat                           : AVI\nFormat/Info                      : Audio Video Interleave\nFile size                        : 1.45 GiB\nDuration                         : 1h 59mn\nOverall bit rate                 : 1 735 Kbps\nWriting application              : VirtualDubMod 1.5.4.1 (build 2178/release)\nWriting library                  : VirtualDubMod build 2178/release\nSource                           : Iron.Man.2.German.2010.DL.PAL.DVDR-KiNOWELT\n\nVideo\nID                               : 0\nFormat                           : MPEG-4 Visual\nFormat profile                   : Simple@L3\nFormat settings, BVOP            : No\nFormat settings, QPel            : No\nFormat settings, GMC             : No warppoints\nFormat settings, Matrix          : Default (H.263)\nCodec ID                         : XVID\nCodec ID/Hint                    : XviD\nDuration                         : 1h 59mn\nBit rate                         : 1 277 Kbps\nWidth                            : 720 pixels\nHeight                           : 304 pixels\nDisplay aspect ratio             : 2.35:1\nFrame rate                       : 25.000 fps\nResolution                       : 8 bits\nColorimetry                      : 4:2:0\nScan type                        : Progressive\nBits/(Pixel*Frame)               : 0.233\nStream size                      : 1.07 GiB (74%)\nWriting library                  : XviD 1.1.2 (UTC 2006-11-01)\n\nAudio\nID                               : 1\nFormat                           : AC-3\nFormat/Info                      : Audio Coding 3\nFormat_Settings_ModeExtension    : CM (complete main)\nCodec ID                         : 2000\nDuration                         : 1h 59mn\nBit rate mode                    : Constant\nBit rate                         : 448 Kbps\nChannel(s)                       : 6 channels\nChannel positions                : Front: L C R, Side: L R, LFE\nSampling rate                    : 48.0 KHz\nStream size                      : 384 MiB (26%)\nAlignment                        : Split accross interleaves\nInterleave, duration             : 40 ms (1.00 video frame)\nInterleave, preload duration     : 500 ms\n\nThanks to Apres-Ski for the source.Nice job!\n\nBrought to you by \n2Lions Team\n\nmeer zien??\n                   \nKom dan eens kijken op ons NIEUWE forum \n            &lt;a href=&quot;\nhttp://www.2lions-site.nl/&quot; rel=&quot;nofollow&quot; target=&quot;_NEW&quot;&gt;\nhttp://www.2lions-site.nl/&lt;/a&gt;\n\n2Lions the site to be for all your Dutch MOVIES and more\n\n******************************************\n\nDON T HIT AND RUN Niet gelijk afhaken als de FILM binnen is blijf seeden. \n\nDon`t quit after you finished the download, but keep seeding\n\nThere are fake torrents from uploaders who use our team name.\nThose are not ours, or members from our team.\nWe 2Lions-Team are not responsible for the fake posts on our name\n\nWij 2Lions-Team zijn niet verantwoordelijk voor die zieke FAKE posten die op onze naam worden gedaan\n\nPlease check our site !!!\n\nto the fakers , get a life !!!","torrent":{"xt":"urn:btih:3fe65368ab47960afd8eb5533cc95579a254fd39","amp;dn":"Iron+Man+2-AC3-XviD-DVDRip%5BEng%5D2010+2Lions-Team","amp;tr":["udp%3A%2F%2Ftracker.openbittorrent.com%3A80","udp%3A%2F%2Fopen.demonii.com%3A1337","udp%3A%2F%2Ftracker.coppersurfer.tk%3A6969","udp%3A%2F%2Fexodus.desync.com%3A6969"],"infoHash":"3fe65368ab47960afd8eb5533cc95579a254fd39","infoHashBuffer":{"type":"Buffer","data":[63,230,83,104,171,71,150,10,253,142,181,83,60,201,85,121,162,84,253,57]},"announce":[],"urlList":[]}}